<?xml version="1.0" encoding="utf-8"?>
<!-- Generator: Adobe Illustrator 28.3.0, SVG Export Plug-In . SVG Version: 6.00 Build 0)  -->
<svg version="1.1" xmlns="http://www.w3.org/2000/svg" xmlns:xlink="http://www.w3.org/1999/xlink" x="0px" y="0px"
	 viewBox="0 0 500 500" style="enable-background:new 0 0 500 500;" xml:space="preserve">
<style type="text/css">
	.st0{display:none;}
	.st1{display:inline;fill:#FFFFFF;}
	.st2{fill:#FFFFFF;}
</style>
<g id="BACKGROUND" class="st0">
	<rect class="st1" width="500" height="500"/>
</g>
<g id="OBJECTS">
	<path class="st2" d="M470.65,209.06c0.08-1.5,0.32-3.27,1.66-3.95c-0.18-1.65-2.6-2.79-2-4.34c0.24-0.64,0.98-1.1,0.92-1.78
		c-0.04-0.5-0.52-0.85-0.78-1.28c-0.69-1.13,0.13-2.55,0.93-3.6c-2.67-1.4-4.23-4.65-3.63-7.61c0.25-1.24,0.83-2.52,0.42-3.71
		c-0.3-0.86-1.05-1.47-1.78-2.02c-0.73-0.54-1.51-1.11-1.88-1.94c-0.38-0.83-0.16-2.01,0.68-2.35c-1.93-0.9-2.76-3.15-3.4-5.18
		c-1.25-3.93-2.5-7.91-2.8-12.03c-0.04-0.5-0.06-1.03-0.32-1.46c-0.25-0.43-0.68-0.71-1.1-0.97c-3.43-2.07-7.3-3.29-11.12-4.5
		c-3.77-1.19-7.53-2.37-11.3-3.56c0.1-0.32,0.2-0.65,0.29-0.98c0.48,0.16,0.96,0.31,1.44,0.48c1.15,0.41,2.34,0.85,3.56,0.74
		c1.22-0.11,2.46-0.98,2.56-2.19c0.1-1.22-0.94-2.4-0.57-3.57c0.09-0.3,0.28-0.56,0.39-0.85c0.24-0.62,0.14-1.3,0.16-1.96
		c0.01-0.66,0.19-1.4,0.76-1.73c-0.37-0.53-0.74-1.21-0.43-1.77c0.25-0.45,2.24-0.03,3.2-1.05c0.16-0.17,0.11-0.44,0.04-0.66
		c-0.41-1.33-2.52-5.18-2.78-5.93c-0.26-0.75-0.31-1.61,0.07-2.31c0.23-0.43,0.62-0.78,0.72-1.26c0.06-0.28,0.01-0.57-0.04-0.85
		c-0.19-1.11-0.39-2.23-0.58-3.34c-0.08-0.45-0.09-1.15-0.18-1.76c0.42-1.15,0.53-2.44,1.25-3.43c0.09-0.12,0.19-0.24,0.23-0.39
		c0.04-0.14,0.02-0.29,0.01-0.44c-0.12-0.96-0.24-1.92-0.36-2.88c-0.03-0.22-0.06-0.45-0.19-0.63c-0.1-0.14-0.26-0.23-0.37-0.37
		c-0.53-0.66,0.34-1.63,0.11-2.44c-1.62-0.71-3.23-1.41-4.85-2.12c-0.54-0.24-1.19-0.69-1-1.25c-2.41-0.63-5-0.56-7.37,0.21
		c-1.01,0.33-2.03,0.78-3.09,0.65c-0.47-0.06-0.92-0.24-1.39-0.27c-0.67-0.05-1.32,0.2-1.95,0.43c-1.33,0.51-2.67,1.02-4,1.52
		c-1.83,0.7-3.78,1.48-4.89,3.1c-0.73,1.07-1,2.37-1.39,3.61c-0.92,2.92-2.58,5.67-2.72,8.72c-0.25,5.65,4.74,10.4,4.99,16.04
		c0.03,0.68-0.03,1.36-0.13,2.02c-2.27,0.72-4.53,1.79-5.5,3.9c-0.7,1.52-0.62,3.38-1.62,4.73c-0.7,0.94-1.81,1.46-2.88,1.94
		c-6.43,2.83-13.14,5.13-19.15,8.76c-0.65,0.39-1.35,0.88-1.48,1.63c-0.13,0.77,0.39,1.5,0.4,2.28c0.01,1.14-1.04,1.98-1.53,3.02
		c-0.74,1.57-0.11,3.4,0.28,5.09c0.36,1.58,0.51,3.22,0.42,4.84c-0.02,0.44-0.08,0.91-0.4,1.22c-0.11,0.1-0.25,0.19-0.3,0.33
		c-0.05,0.14,0.07,0.35,0.21,0.29c-0.87,1.05-1.45,2.18-1.32,3.54c0.12,1.29,0.72,2.55,0.55,3.84c-0.08,0.6-0.32,1.17-0.43,1.77
		c-0.2,1.07,0.05,2.17,0.23,3.25c0.67,4.13,0.28,8.35-0.11,12.52c-0.08,0.89-0.18,1.81-0.62,2.58c-0.45,0.8-1.27,1.52-1.16,2.43
		c0.05,0.44,0.33,0.82,0.5,1.22c0.5,1.14,0.24,2.49-0.28,3.63c-0.51,1.14-1.26,2.16-1.76,3.31c-1.42,3.22-0.77,6.92-0.71,10.44
		c0.07,4.87-1.05,14.59-2.17,19.33c1.16,0.52,2.21,0.87,3.18,1.09c0.34,3.48,0.67,6.95,1.01,10.43c0.06,0.61,0.12,1.24,0.42,1.77
		c0.44,0.79,1.31,1.23,1.99,1.84c0.46,0.42,0.84,0.93,1.25,1.4c1.74,1.97,4.14,3.21,6.48,4.41c0.22,0.11,0.45,0.23,0.7,0.21
		c0.52-0.03,0.82-0.67,0.71-1.17c-0.12-0.51-0.51-0.9-0.9-1.24c-0.95-0.85-1.95-1.63-3.01-2.34c1.19,0.14,2.38,0.18,3.58,0.1
		c0.31-0.02,0.64-0.05,0.91-0.21c0.39-0.23,0.6-0.68,0.78-1.1c0.32-0.76,0.58-1.79-0.08-2.29c-0.56-0.43-1.37-0.12-1.94,0.3
		c-0.56,0.42-1.11,0.97-1.81,1.02c0.85-0.46,1.36-1.48,1.2-2.43c-0.06-0.38-0.22-0.77-0.12-1.15c0.07-0.29,0.28-0.53,0.33-0.82
		c0.1-0.59-0.45-1.05-0.76-1.56c-0.22-0.36-0.31-0.78-0.4-1.19c-0.19-0.84-0.38-1.67-0.57-2.51c-0.12-0.55-0.25-1.1-0.53-1.59
		c-0.35-0.61-0.92-1.08-1.18-1.73c-0.16-0.41-0.18-0.86-0.19-1.31c0.26-0.13,0.51-0.26,0.76-0.39c1.41-8.39,6.41-19.78,8.04-27.75
		c0.27-1.31,0.53-2.71,0.04-3.95c-0.11-0.28-0.26-0.56-0.23-0.86c0.06-0.61,0.76-0.89,1.22-1.3c1.37-1.21,0.52-3.43,0.7-5.25
		c0.12-1.17,0.71-2.23,1.12-3.34c0.27,1.9,0.57,3.78,0.89,5.66c0.36,2.07,0.75,4.25,0.04,6.23c-0.43,1.18-1.22,2.19-1.73,3.33
		c-2.19,4.9,1.15,10.39,1.6,15.73c0.24,2.83-0.36,5.66-0.94,8.44c-1.05,4.94-2.09,9.88-3.14,14.82c0.95,0.38,1.91,0.73,2.87,1.06
		c0.04,5.83,0.8,11.65,2.28,17.29c1.08,4.11,2.55,8.15,3,12.38c0.35,3.23,0.1,6.51,0.65,9.72c0.58,3.39,2.05,6.68,1.81,10.11
		c-0.23,3.34-2.07,6.54-1.57,9.85c0.25,1.63,1.05,3.12,1.61,4.68c0.78,2.18,1.06,4.5,1.34,6.79c0.78,6.43,1.56,12.86,2.34,19.29
		c0.33,2.75,0.55,5.91-1.35,7.93c1.23,0.55,2.49,1.13,3.4,2.12c0.9,1,1.36,2.53,0.71,3.72c-1.36,7.39,3.63,7.75,5.83,7.84
		c-0.05,1.03-0.21,2.05-0.41,3.06c-0.31,1.57-0.72,3.12-1.21,4.64c-0.24,0.76-0.52,1.54-1.08,2.1c-0.85,0.83-2.17,0.99-3.09,1.73
		c-1.47,1.17-1.53,3.34-1.46,5.22c0.01,0.24,0.02,0.5,0.16,0.69c0.13,0.18,0.35,0.27,0.56,0.35c1.67,0.6,3.46,0.72,5.23,0.83
		c1.63,0.1,3.27,0.21,4.9,0.31c2.04,0.13,4.15,0.25,6.07-0.44c0.42-0.15,0.84-0.35,1.14-0.69c0.67-0.78,0.43-1.95,0.37-2.98
		c-0.14-2.38,0.87-4.65,1.49-6.95c0.62-2.3,0.78-5.01-0.77-6.82c-0.47-0.54-1.07-0.97-1.42-1.6c-0.55-0.96-0.39-2.15-0.53-3.25
		c-0.02-0.19-0.06-0.37-0.1-0.55c0.24-0.87,0.51-1.73,0.81-2.57c0.01,1.04,0.1,2.08,0.32,3.09c0.47,2.11,1.67,4.16,3.59,5.13
		c0.64,0.32,1.33,0.52,2.02,0.68c2.13,0.49,4.42,0.68,6.48-0.08c0.71-0.26,1.38-0.63,1.91-1.17c0.67-0.69,1.07-1.61,1.29-2.55
		c0.69-2.95-0.23-6-0.78-8.97c-0.52-2.84-0.71-5.72-0.75-8.61c-0.02-1.43-0.01-2.86,0.02-4.29c0-0.21,0.03-0.46,0.05-0.72
		c0.63-0.24,1.22-0.56,1.75-0.98c-0.21-0.77-0.09-1.63,0.33-2.3c0.43-0.7,1.13-1.18,1.7-1.77c2.86-2.99,1.75-7.87,2.85-11.86
		c0.85-3.08,3.03-5.61,4.28-8.54c1.04-2.44,1.42-5.11,1.62-7.76c0.29-3.89,0.21-7.8,0.13-11.71c-0.09-4.3-0.18-8.6-0.26-12.9
		c-0.15-7.41-0.3-14.82-0.45-22.23c-0.05-2.25,0.34-5.24,0.18-7.83c1.44-0.98,2.56-2.28,2.8-3.98c0.07-0.5,0.05-1.01-0.02-1.51
		c0.23-0.31,0.42-0.66,0.59-1.01c1.38-2.7,2.76-5.39,4.14-8.09c0.82-1.61,1.66-3.25,2.02-5.02c0.4-1.94,0.23-3.97,0.51-5.93
		c1.21,0.01,2.42-0.1,3.6-0.37c-0.23-7.07-0.6-14.16-0.24-21.22C470.54,211.32,470.59,210.19,470.65,209.06z M427.68,317.57
		c-0.24-1.17-0.53-2.41-0.07-3.51c0.28-0.67,0.8-1.21,1.05-1.89c0.38-1.04,0.05-2.19-0.2-3.26c-1.1-4.64-0.78-9.48-0.46-14.23
		c0.44-6.47,0.88-12.94,1.32-19.4c1.6,5.6,3.21,11.2,4.81,16.8c1.18,4.11,2.33,8.64,0.57,12.53c1.58,0.08,2.91,1.34,3.52,2.79
		c0.62,1.46,0.65,3.08,0.61,4.66c-0.13,5.46-1,10.99-3.3,15.94c-0.64,1.38-1.4,2.74-1.64,4.24c-0.21,1.29-0.05,2.75-0.87,3.77
		c-0.38,0.47-0.93,0.8-1.19,1.34c-0.32,0.68-0.1,1.48,0.17,2.18c0.13,0.33,0.27,0.66,0.41,0.98c-0.24,0.48-0.44,0.98-0.64,1.47
		c-0.57,1.44-1.16,2.91-1.22,4.46c-0.04,0.9,0.1,1.79,0.21,2.68c0.42,3.43,0.4,6.89,0.25,10.34c-0.31-0.14-0.62-0.29-0.93-0.43
		C426.46,345.63,430.49,331.17,427.68,317.57z M459.6,234.03c-0.59,0.97-1.42,1.76-2.28,2.51c-0.4,0.35-0.81,0.7-1.29,0.93
		c-0.23,0.11-0.47,0.19-0.72,0.26c-1.49-6.89-2.39-13.91-2.65-20.95c-0.23-6.07,0.01-12.16-0.07-18.24c0-0.28-0.02-0.55-0.03-0.83
		c0.7,1.27,1.24,2.72,0.86,4.11c0.55,0.38,1.2,0.62,1.86,0.68c-0.47,1.37-0.21,2.86,0.06,4.28c0.79,4.17,1.57,8.34,2.36,12.52
		c0.26,1.36,0.51,2.73,0.68,4.1c0.32,2.62,0.33,5.28,0.02,7.9c0.59,0.4,1.21,0.75,1.85,1.07
		C460.14,232.95,459.93,233.5,459.6,234.03z"/>
	<path class="st2" d="M366.71,199.38c0.83-3.5,0.88-6.93,0.88-10.53c0-0.04,0.14,0.06,0.14,0.02c2.68-2.45,3.5-6.25,4.76-9.65
		c1.28-3.46,3.12-6.71,4.16-10.25c1.04-3.54,1.37-7.89-0.74-10.92c-0.71-1.02-1.45-2.06-2.45-2.81c-0.47-0.35-0.99-0.62-1.43-1
		c-1.04-0.9-1.52-2.27-1.89-3.59c-0.36-1.27-0.66-2.59-0.52-3.91c0.12-1.08,0.53-2.09,0.77-3.15c0.95-4.16-0.79-8.4-2.35-12.37
		c-2.02-5.12-3.78-10.34-5.29-15.64c-0.36-1.27-0.71-2.54-1.31-3.72c-1.18-2.33-3.24-4.06-5.27-5.72c0,0,0,0,0.01,0.01
		c-1.38-1.61-3.67-2.04-5.78-2.19c-2.29-0.16-4.59-0.11-6.87,0.15c-1.75,0.2-3.52,0.54-5.03,1.45c-0.91,0.55-1.69,1.29-2.59,1.85
		c-1.21,0.76-2.59,1.18-3.85,1.85c-1.94,1.04-3.5,2.64-5.03,4.21c-0.29,0.3-0.6,0.62-0.72,1.02c-0.17,0.54,0,1.13,0.09,1.7
		c0.17,1.22-0.12,2.46-0.41,3.66c-0.51,2.09-1.02,4.19-1.53,6.28c-0.92,3.76-1.84,7.52-2.98,11.22c-0.73,2.37-1.55,4.71-2.12,7.12
		c-0.74,3.11-1.06,6.33-0.95,9.53c0,0.14,0.04,0.32,0.17,0.37c-0.07,0.39-0.04,0.79,0.12,1.16c0.01,0,0.02-0.02,0.03-0.02
		c-0.55,1.34-1.06,2.72-0.79,4.12c0.11,0.1,0.25,0.13,0.39,0.15c-0.98,0.65-1.78,1.62-2.17,2.71c-0.34,0.93-0.42,1.92-0.65,2.88
		c-0.4,1.67-1.25,3.23-2.44,4.46c-0.26,0.27-0.54,0.54-0.65,0.9c-0.07,0.26-0.05,0.53-0.07,0.79c-0.05,0.71-0.44,1.35-0.79,1.97
		c-0.84,1.49-1.55,3.07-2.11,4.69c-0.58,1.68-1.01,3.45-2.01,4.93c-1.13,1.68-2.95,2.93-3.62,4.84c-0.17,0.49-0.26,1.01-0.35,1.53
		c-0.16,0.96-0.33,1.92-0.49,2.88c-0.34,2-0.65,4.21,0.43,5.94c0.34,0.55,0.81,1.02,1.27,1.48c3.75,3.74,7.84,7.66,13.04,8.61
		c0,4.24,0,8.54,0,12.78c-0.86,3.34-1.65,6.69-2.41,10.05c-4.61,13.41-6.76,27.75-9.48,41.76c-0.98,5.03-2.09,10.18-4.91,14.47
		c1.05,0.46,2.51,1.04,4.31,1.67c-0.09,1.32-0.17,2.65-0.22,3.97c-0.22,6.42,0.09,13.09,2.93,18.86
		c5.59,11.36,7.49,23.73,12.97,35.15c1.99,4.15,3.93,8.4,4.73,12.93c0.8,4.54,0.34,9.46-2.19,13.31c-1.97,3-5.13,5.31-6.18,8.74
		c-0.43,1.42-0.41,3.11,0.57,4.22c0.61,0.68,1.5,1.05,2.4,1.22c3.09,0.57,6.06-1.02,8.74-2.76c-0.27,0.82-0.4,1.68-0.35,2.54
		c0.03,0.5,0.13,1.01,0.42,1.41c0.35,0.49,0.93,0.76,1.5,0.95c3.54,1.21,7.42,0.35,11.01-0.72c2.71-0.81,5.42-1.76,7.72-3.4
		c1.7-1.21,3.21-2.82,5.23-3.38c0.93-0.26,1.97-0.3,2.72-0.91c1.19-0.96,1.03-2.79,0.77-4.29c-0.7-3.97-2.42-7.85-1.99-11.86
		c0.79-7.33,4.19-14.1,6.18-21.2c2.8-10.01,2.74-20.8-0.17-30.78c-1.13-3.87-2.68-7.62-3.42-11.58c-0.54-2.89-0.63-5.76-0.41-8.62
		c5.07-1.07,10.22-2.64,15.32-4.86c-3.59-11.78-2.78-24.36-2.89-36.68c-0.04-4.51-0.24-9.03-0.81-13.51
		c-0.99-7.77-3.47-14.49-7.08-21.38c-0.11-0.2-0.23-0.39-0.35-0.57C361.67,210.24,365.38,204.98,366.71,199.38z M356.11,106.11
		c-0.03-0.02-0.05-0.04-0.08-0.06C356.12,106.09,356.11,106.1,356.11,106.11z M321.33,141.86c0.15,4.23-0.58,8.49-2.13,12.43
		c0-0.08,0-0.17,0-0.25C318.94,149.89,319.68,145.68,321.33,141.86z M344.83,360.26c-0.19,0.57-0.42,1.13-0.63,1.69
		c-0.75-1.82-2.09-3.33-3.23-4.94c-7.35-10.49-5.06-24.99-10.01-36.81c-1.06-2.53-2.45-4.94-3.24-7.57
		c-0.96-3.19-1.01-6.59-0.82-9.91c0.16-2.86,0.49-5.72,0.99-8.55c3.36,0.38,6.9,0.62,10.59,0.65c0.14,0.93,0.3,1.85,0.48,2.77
		c1.85,9.27,5.99,18.03,7.27,27.39c0.41,3,0.53,6.04,0.55,9.08C346.86,342.76,347.63,352.01,344.83,360.26z"/>
	<path class="st2" d="M297.42,207.08c-0.24-1.68-0.49-3.36-0.73-5.04c-0.15-1.05-0.3-2.13-0.01-3.15c0.07-0.26,0.18-0.52,0.19-0.8
		c0.01-0.37-0.15-0.73-0.28-1.08c-0.31-0.85-0.43-1.75-0.53-2.64c-0.91-7.53-1.31-15.2-3.56-22.45c-0.78-2.5-1.75-4.89-1.39-7.49
		c0.29-2.08-2.77-3.61-2.26-5.65c0.04-0.18,0.12-0.37,0.05-0.54c-0.06-0.17-0.23-0.26-0.38-0.35c-5.02-2.73-10.14-5.29-15.33-7.69
		c-0.84-0.39-1.69-0.77-2.41-1.35c-1.8-1.43-2.6-3.77-3.95-5.62c0-0.02,0-0.04,0-0.06c0.02-0.17,0.05-0.34,0.15-0.47
		c0.1-0.13,0.25-0.21,0.39-0.29c1.12-0.66,1.88-1.81,2.31-3.04c0.43-1.22,0.57-2.53,0.71-3.82c0.6,0.36,1.46,0.21,1.91-0.33
		c0.24-0.29,0.36-0.66,0.47-1.02c0.68-2.27,1.08-4.62,1.2-6.98c0.05-1.05,0.04-2.15-0.46-3.07c-0.04-0.08-0.09-0.18-0.03-0.25
		c0.06-0.07,2-3.97,1.05-5.71c0.69-2.23,0.4-4.73-0.76-6.75c0.57,0.25,1.14,0.51,1.71,0.76c-1.14-1.6-2.55-3.02-4.15-4.16
		c0.5,0.05,1,0.1,1.5,0.16c-2.2-1.78-4.82-3.03-7.59-3.61c0.39-0.09,0.78-0.19,1.18-0.28c-2.81-0.39-5.69-0.19-8.42,0.58
		c0.15-0.19,0.29-0.39,0.44-0.58c-2.98,1.12-6.16,2.38-7.91,5.05c0.08-0.5,0.16-1.01,0.24-1.51c-1.04,0.85-1.79,2.05-2.12,3.36
		c0.04-0.18,0.09-0.35,0.13-0.53c-1.83,2.2-2.97,4.96-3.23,7.81c-0.01,0.12-0.03,0.25-0.14,0.3c-0.04,0.02-0.08,0-0.12-0.03
		c0.22,1.93,0.56,3.92,0.02,5.78c-0.89,3.04-0.56,6.42,0.9,9.23c0.42,0.81,1.25,1.69,2.09,1.32c0.53,2.12,0.63,4.34,0.34,6.5
		c-1.11,0.48-2.1,1.39-2.84,2.36c-1.22,1.6-2.15,3.49-3.79,4.67c-1.16,0.84-2.58,1.23-3.95,1.64c-5.07,1.52-10,3.5-14.72,5.91
		c-0.34,0.17-0.7,0.37-0.87,0.7c-0.19,0.35-0.13,0.78-0.15,1.18c-0.08,2.03-1.97,3.42-3.19,5.03c-2.47,3.28-2.26,7.76-2.27,11.87
		c-0.02,7.72-1.23,15.38-2.44,23.01c-1.16,7.3,0.3,14.86,1.11,22.2c0.46,4.18,0.56,8.4,0.87,12.6c0.09,1.18,0.54,2.72,1.73,2.72
		c0.19-0.38,0.45-0.7,0.76-0.97c0.01,1.13,0.09,2.24,0.34,3.38c0.57,2.61,1.8,5.08,3.57,7.09c-0.07,0.26-0.13,0.52-0.17,0.79
		c-0.49,3.12,1.07,6.14,1.99,9.16c2.9,9.47-0.38,19.6-0.88,29.49c-0.1,1.88-0.07,3.85,0.75,5.55c0.18,0.36,0.39,0.73,0.36,1.14
		c-0.06,0.81-1.05,1.25-1.23,2.04c-0.15,0.65,0.3,1.27,0.57,1.89c0.6,1.36,0.28,3.09-0.78,4.14c-1.29,1.28-1.35,2.89-1.98,4.59
		c-0.67,1.8-1.34,3.61-1.82,5.47c-0.62,2.4-0.92,4.86-1.17,7.33c-1.06,10.62-1.1,21.34-0.11,31.97c0.28,3.03,0.44,6.6-1.9,8.54
		c-0.39,0.33-0.87,0.63-0.99,1.13c-0.09,0.36,0.04,0.73,0.17,1.08c0.56,1.52,1.12,3.05,1.68,4.57c0.01,0.01,0.02,0.01,0.04,0.01
		c-0.37,1.95-1.02,3.63-1.93,5.45c-1.17,2.11-2.57,4.08-3.56,6.28c-1.27,2.83-1.81,5.93-2.12,9.01c-0.08,0.79-0.15,1.6,0,2.38
		c0.15,0.78,0.53,1.55,1.19,2c0.53,0.36,1.18,0.48,1.82,0.59c1.63,0.28,3.27,0.54,4.93,0.63c0.72,0.04,1.46,0.06,2.16-0.1
		c1.79-0.38,3.24-1.78,4.11-3.39c0.88-1.61,1.28-3.43,1.67-5.22c0.4-1.79,0.81-3.61,1.71-5.21c0.43-0.77,0.97-1.47,1.34-2.27
		c0.66-1.41,0.74-3.01,0.72-4.56c-0.01-1.03-0.07-2.06-0.17-3.08c-0.01-0.08-0.02-0.16-0.03-0.24c1.53-1.44,3.12-3.3,2.59-5.31
		c-0.26-0.98-1.02-1.81-1.13-2.82c-0.19-1.75,1.59-3.55,0.76-5.1c-0.27-0.5-0.77-0.86-1.02-1.37c-0.32-0.66-0.16-1.43,0.01-2.14
		c1.93-8.1,4.17-16.13,6.7-24.06c0.76-2.39,1.56-4.78,2.1-7.24c1.67-7.48,1.05-15.52,4.16-22.52c0.44-1,1.39-2.14,2.39-1.71
		c-0.57-0.77-1.13-1.53-1.7-2.3c0.44-1.14,0.88-2.27,1.32-3.41c0.7-1.81,1.56-3.8,3.34-4.59c2.33-7.75,4.66-15.79,7.16-23.49
		c2.27,9.75,3.5,19.42,4.15,29.4c0.1,1.49,0.18,3.02,0.75,4.4c0.19,0.47,0.44,0.93,0.48,1.43c0.08,1.32-1.34,2.39-1.25,3.71
		c0.07,0.93,0.85,1.62,1.41,2.37c2.06,2.78,1,6.64,0.42,10.06c-2,11.9,3.13,24.49-0.48,36.01c-0.21,0.66-0.45,1.35-0.32,2.03
		c0.14,0.78,0.74,1.4,0.98,2.15c0.44,1.35-0.32,2.76-0.76,4.12c-0.44,1.35-0.33,3.23,1.01,3.72c0.02,0.01,0.05,0.01,0.07,0.02
		c-0.21,0.43-0.39,0.87-0.53,1.32c-0.35,1.09-0.54,2.22-0.53,3.36c0.04,3.57,2.05,6.76,3.54,10c0.5,1.09,0.94,2.21,1.33,3.34
		c0.35,1.03,0.66,2.08,1.2,3.03c0.54,0.95,1.35,1.79,2.38,2.12c0.53,0.17,1.1,0.19,1.66,0.21c0.95,0.03,1.9,0.05,2.85,0.06
		c1.34,0.01,2.78-0.02,3.89-0.78c0.87-0.6,1.43-1.59,1.67-2.61c0.25-1.03,0.21-2.11,0.1-3.16c-0.31-3.01-1.22-5.95-2.66-8.6
		c-1.2-2.2-2.75-4.22-3.7-6.55c-0.16-0.41-0.28-0.89-0.38-1.4c0.27-0.06,0.55-0.11,0.82-0.17c2.29-0.56,4.96-2.31,4.35-4.59
		c-0.38-1.41-1.95-2.32-2.14-3.76c-0.24-1.81,1.82-3.44,1.34-5.2c-0.2-0.72-0.79-1.27-1.14-1.93c-1.17-2.22,0.55-4.77,1.56-7.07
		c1.44-3.28,1.44-6.99,2.36-10.45c0.64-2.41,1.75-4.73,1.95-7.21c0.28-3.33-1.07-6.77-0.05-9.95c0.64-2,2.18-3.71,2.37-5.8
		c0.34-3.71-3.63-6.64-3.73-10.36c-0.05-1.79,0.8-3.45,1.31-5.17c1.35-4.62,0.15-9.58,0.71-14.36c0.46-3.95,2.95-6.36,3.98-10.19
		c1.11-4.16,1.48-9.33,1.14-14.2c0.6-0.2,1.09-0.64,1.55-1.08c0.93-0.89,1.87-1.78,2.8-2.68c0.41-0.39,0.81-0.78,1.16-1.22
		c0.47-0.6,0.81-1.29,1.1-1.99c1-2.37,1.44-5.03,1.21-7.58c0.31,0.29,0.61,0.59,0.9,0.9c0.08-2.12-0.07-4.24-0.29-6.35
		c-0.03-0.33-0.07-0.66-0.11-0.99c0.39,0.16,0.86,0.3,1.17,0.03c0.25-0.21,0.26-0.58,0.26-0.91
		C297.69,220.59,298.41,213.93,297.42,207.08z M284.77,217.43c0.15,3.51-0.45,7.38,1.59,10.25c0.22-0.15,0.44-0.27,0.68-0.38
		c0.12,1.62,0.3,4.18,0.41,4.21c0.11,0.02,0.22,0.02,0.33,0c-0.05,2.45-0.9,4.88-2.48,6.77c-0.09,0.1-0.17,0.21-0.23,0.33
		c-3.13-12.19-5.66-24.7-4.99-37.26c0.19-3.47,0.62-6.92,0.82-10.39c0.28,0.61,0.31,1.3,0.34,1.97c0.22,5.02,0.85,10.02,1.88,14.93
		C283.79,211.03,284.63,214.19,284.77,217.43z M228.12,235.02c-0.07-0.06-0.13-0.12-0.18-0.19c-0.46-0.61-0.32-1.44-0.38-2.21
		c0.02,0,0.05,0,0.07-0.01c0.4,0.39,0.82,0.77,1.24,1.14C228.62,234.17,228.37,234.6,228.12,235.02z M228.87,198.71
		c0.08-0.73,0.16-1.45,0.25-2.18c0.03-0.27,0.41-0.51,0.51-0.4c0.25,9.95,0.51,19.89,0.76,29.84c0.05,1.77-0.13,3.86-1.04,5.24
		c-1.14-5.3-1.72-10.72-1.71-16.14C227.66,209.59,228.26,204.14,228.87,198.71z"/>
	<path class="st2" d="M209.07,377.83c-0.36-1.19-1.56-1.9-2.65-2.5c-5.48-2.97-10.51-8.49-11.39-9.8c-0.89-1.31-1-3.29,0.19-4.34
		c-0.92,1.05-2.74-0.28-2.77-1.68c-0.03-1.39,0.84-2.64,1.15-4c0.38-1.64-0.06-3.34-0.45-4.98c-2.73-11.44-3.01-23.46-0.82-35.02
		c-2.35-2.75-2.01-6.81-1.63-10.4c1.34-12.48,1.71-25.04,2.01-37.59c0.12-4.99,0.21-10.03-0.48-14.96c0.21-0.16,0.4-0.36,0.57-0.56
		c1.14-1.4,1.74-3.15,2.29-4.86c0.83-2.58,1.58-5.18,2.25-7.81c0.05-0.18,0.1-0.37,0.17-0.56c0.83,0.13,1.73,0.16,2.45-0.27
		c0.91-0.55,1.28-1.65,1.59-2.67c2.04-6.85,4.1-13.77,4.5-20.91c0.47-8.35-1.18-16.89-0.75-25.25c-0.9-0.29-1.4-1.44-1-2.29
		c0.18-0.38,0.48-0.89,0.15-1.15c-0.13-0.1-0.3-0.11-0.45-0.17c-0.37-0.16-0.47-0.67-0.36-1.06c0.11-0.39,0.38-0.72,0.56-1.09
		c0.46-0.96,0.3-2.09,0.13-3.15c-1.01-6.19-2.04-12.42-4.08-18.36c-0.85-2.46-1.88-4.9-2.16-7.49c-0.06-0.58-0.1-1.2-0.43-1.68
		c-0.29-0.42-0.77-0.67-1.24-0.9c-4.81-2.4-9.74-4.59-14.89-6.12c-1.98-0.59-4.1-1.14-5.52-2.63c-1.87-1.97-3.93-5.26-4.18-8.1
		c0.79-1.27,1.3-2.7,1.29-4.19c-0.01-0.92-0.19-1.91,0.29-2.69c0.24-0.38,0.62-0.66,0.88-1.03c0.4-0.57,0.49-1.29,0.58-1.98
		c0.24-2.01,0.47-4.02,0.71-6.03c0.03-0.29,0.07-0.6-0.05-0.87c-0.11-0.25-0.33-0.43-0.47-0.66c-0.42-0.72,0.07-1.6,0.26-2.41
		c0.41-1.7-0.52-3.62,0.28-5.18c0.2-0.39,0.5-0.73,0.6-1.15c0.13-0.58-0.15-1.16-0.42-1.69c-0.44-0.86-0.87-1.71-1.31-2.57
		c-0.74-1.44-1.61-3-3.13-3.54c-0.82-0.29-1.75-0.23-2.54-0.59c-1.03-0.46-1.67-1.5-2.6-2.14c-1.57-1.06-3.66-0.8-5.46-1.41
		c-0.81-0.28-1.56-0.74-2.39-0.94c-1.52-0.38-3.24,0.2-4.23,1.42c-0.17,0.21-0.33,0.45-0.59,0.56c-0.35,0.15-0.75-0.01-1.13-0.09
		c-1.22-0.25-2.46,0.46-3.28,1.4c-0.82,0.94-1.32,2.1-1.98,3.17c-0.62,1.01-1.37,1.93-2.24,2.74c-0.26,0.25-0.54,0.49-0.69,0.81
		c-0.16,0.34-0.16,0.73-0.16,1.1c0.03,3.96,0.4,7.91,1.07,11.81c-0.35,1.56-0.69,3.13-0.69,4.73c0,1.63,0.38,3.3,1.38,4.59
		c0.25,0.33,0.55,0.63,0.71,1.02c0.13,0.3,0.16,0.63,0.2,0.95c0.16,1.64,1.14,4.71,2.93,7.28c-0.22,0.47-0.43,0.96-0.6,1.45
		c-0.44,1.28-0.75,2.69-1.75,3.6c-0.73,0.67-1.73,0.95-2.68,1.21c-6.43,1.77-12.85,3.54-19.28,5.32c-0.13,2.65-0.86,5.27-2.13,7.6
		c-0.61,1.12-1.35,2.19-1.68,3.42c-1.09,4.06-3.18,7.38-4.11,11.47c-1.24,5.45-2.48,10.91-3.73,16.36
		c-1.23,5.38-2.46,10.88-1.87,16.36c0.41,3.87,1.72,7.58,3.01,11.26c2.77,7.84,5.54,15.68,8.3,23.52c0.25,0.7,0.53,1.44,1.15,1.84
		s1.66,0.19,1.79-0.53c0.32,0.62,0.65,1.23,0.97,1.85c-0.59,3.5-0.39,7.15-0.16,10.72c0.95,14.82,3.89,43.68,6.33,53.44
		c0.17,0.66,1.28,0.75,1.37,1.43c0.15,1.08-1.43,1.93-1.1,2.97c1.34,0.34,1.78,1.99,1.97,3.36c0.6,4.12,1.19,8.25,1.27,12.41
		c0.1,5.11-0.59,10.21-0.3,15.31c0.29,5.1,1.71,10.39,5.32,14.01c-1.05,0.98-1.88,2.18-2.43,3.5c1.79,1.44,3.3,3.22,4.43,5.21
		c-0.29,1.9-1.77,3.12-2.95,4.64c-3.67,4.72-5.65,10.74-5.49,16.72c0.01,0.57,0.06,1.17,0.38,1.65c0.37,0.54,1.03,0.8,1.64,1.03
		c2.16,0.79,4.48,1.57,6.71,1.01c2.72-0.68,4.56-3.13,6.17-5.42c0.6-0.85,1.2-1.71,1.49-2.71c0.3-1.02,0.24-2.1,0.31-3.15
		c0.11-1.79,0.59-3.56,1.4-5.17c0.86-1.72,2.13-3.41,2.02-5.34c-0.06-1-0.5-1.95-0.65-2.94c-0.32-2.15,0.76-4.23,1.31-6.33
		c0.09-0.34,0.16-0.7,0.05-1.03c-0.11-0.3-0.36-0.53-0.6-0.75c-0.78-0.71-1.51-1.49-2.16-2.32c-0.19-0.24-0.37-0.5-0.44-0.79
		c-0.09-0.37,0.03-0.76,0.14-1.13c0.4-1.33,0.8-2.65,1.2-3.98c0.04-0.13,0.08-0.28,0.04-0.41c-0.05-0.16-0.21-0.25-0.36-0.33
		c-0.39-0.21-0.78-0.43-1.17-0.64c1.02-7.78,1.43-15.47,2.44-23.25c0.36-2.78,0.73-5.62,0.17-8.36c-0.28-1.4-0.8-2.81-0.5-4.2
		c0.25-1.14,1.03-2.1,1.44-3.19c0.48-1.26,0.45-2.64,0.47-3.98c0.06-5.42,0.79-10.81,1.53-16.17c0.84-6.14,1.69-12.28,2.53-18.42
		c1.26,8.16,4,16.45,5.77,24.29c1.66,7.35,2.92,11.26,2.31,18.78c-0.46,5.63-2.19,11.37-0.75,16.83c0.59,2.25,1.7,4.32,2.55,6.48
		c2.1,5.34,3.04,14.8,2.46,20.51c-0.25,2.5-0.41,5.64,1.8,6.84c-1.07,1.14-2.14,2.28-3.21,3.42c2.03-0.15,2.73,2.72,2.32,4.71
		c-0.4,2-0.99,4.51,0.65,5.72c0.51,0.38,1.16,0.53,1.78,0.67c7.72,1.76,6.68,1.53,14.4,3.29c4.75,1.08,9.76,2.16,14.43,0.77
		C207.45,381.7,209.7,379.9,209.07,377.83z M133.08,229.82c-0.22-0.69-0.31-1.42-0.29-2.14c0.28,0.61,0.56,1.22,0.84,1.83
		C133.45,229.61,133.26,229.7,133.08,229.82z M189.75,200.25c0.08,0.36,0.15,0.74,0.1,1.1c-0.06,0.47-0.32,0.89-0.45,1.35
		c-0.3,1.08,0.26,2.34,1.27,2.84c-1.45,1.81-1.25,4.38-1.12,6.7c0.27,4.69-0.06,9.38-0.52,14.06c-1.88-6.23-3.46-12.59-2.8-19.01
		c0.22-2.12,0.68-4.21,0.99-6.31c0.45-3.08,0.57-6.2,0.69-9.31c0-0.05,0-0.1,0.01-0.15c0.46,2.2,0.92,4.4,1.38,6.61
		C189.46,198.83,189.61,199.54,189.75,200.25z M124.7,205.57c0.32-0.61,0.63-1.22,0.95-1.83c-1.14-2.3-0.21-5.04,0.72-7.43
		c1.44-3.71,2.89-7.41,4.33-11.12c2.05,8.16,3.32,16.52,3.77,24.93c-0.51,3.8-1.09,7.57-3.13,11.16c-0.14,0.25-0.29,0.51-0.4,0.77
		C128.33,216.95,128.61,209.97,124.7,205.57z"/>
	<path class="st2" d="M113.25,244.58c-0.22-2.26,0.03-4.54-0.11-6.81c-0.12-1.94-0.51-3.85-0.91-5.75
		c-0.76-3.67-1.53-7.35-2.45-10.98c-1.14-4.51-2.56-9.02-4.42-13.32c0.52-0.38,1.02-0.79,1.5-1.22c-1.51-4.3-3.18-8.54-5.01-12.72
		c0.05-0.76,0.1-1.51,0.14-2.27c-0.45-0.07-0.89-0.13-1.34-0.2c0.53-0.94,1.07-1.88,1.6-2.83c-1.23-3.26-1.55-6.85-0.92-10.28
		c0.11-0.61,0.26-1.25,0.12-1.86c-0.11-0.48-0.38-0.91-0.53-1.38c-0.56-1.81,0.82-3.59,1.2-5.44c0.64-3.05-1.46-6.04-1.43-9.16
		c0.03-2.49,1.37-5.18,0.1-7.32c-0.7-1.18-2.03-1.81-3.29-2.37c-3.51-1.56-7.06-3.03-10.64-4.43c-6.87-8.21-2.22-18.96-2.56-27.73
		c-0.15-3.76-0.46-7.61-2.01-11.04c-1.55-3.43-4.57-6.42-8.3-6.95c-2.34-0.34-3.83,0.57-5.63-1.11c-1.42-1.32-2.94-2.4-4.91-2.68
		c-2.46-0.35-4.95,0.32-7.3,1.14c-2.68,0.94-5.34,2.12-7.47,4.01c-2.13,1.89-3.67,4.58-3.64,7.43c0.02,1.78,0.64,3.49,1.39,5.11
		c0.11,0.24,0.22,0.48,0.41,0.66c0.01,0.01,0.02,0.01,0.03,0.02c-0.12,0.73-0.21,1.43-0.27,2.06c-0.07,0.77-0.09,1.55,0.13,2.29
		c0.22,0.74,0.68,1.41,0.8,2.17c0.2,1.33-0.67,2.56-1.52,3.6c-0.61,0.74-1.25,1.76-0.74,2.58c0.5,0.8,1.87,0.86,2.12,1.77
		c0.14,0.52-0.17,1.17,0.18,1.58c0.15,0.17,0.38,0.25,0.55,0.4c0.24,0.22,0.3,0.57,0.34,0.9c0.28,1.9,0.55,3.8,0.83,5.71
		c0.05,0.31,0.1,0.64,0.29,0.88c0.17,0.21,0.43,0.33,0.68,0.42c1.38,0.47,2.89,0.19,4.3-0.13c1.11-0.25,2.22-0.54,3.32-0.87
		c0.03,0.09,0.07,0.18,0.1,0.26c0.78,2.2,0.44,4.78-1.17,6.51c-0.87-0.41-2.01-0.4-3.44,0.23c-4.47,1.97-9.09,3.58-13.82,4.8
		c-0.66,0.17-1.37,0.36-1.84,0.86c-0.37,0.4-0.54,0.94-0.69,1.46c-1.3,4.37-2.61,8.8-2.66,13.36c-0.06,4.88,1.28,10.07-0.83,14.47
		c-0.24,0.49-0.51,1.08-0.23,1.55c0.2,0.33,0.6,0.47,0.88,0.73c0.71,0.68,0.36,1.88-0.18,2.7c-0.54,0.82-1.27,1.65-1.18,2.63
		c0.04,0.43,0.24,0.84,0.27,1.27c0.07,1-0.74,1.84-0.99,2.81c-0.38,1.47,0.56,2.92,0.82,4.42c0.22,1.32-0.1,2.67-0.43,3.98
		c-0.62,2.48-1.23,4.95-1.85,7.43c-0.53,2.13-1.07,4.28-2.08,6.22c-0.29-0.04-0.58-0.07-0.87-0.11c0.8,0.62,1.68,1.12,2.61,1.51
		c1.26,4.81,2.11,9.77,3.14,14.63c0.63,2.98,1.27,5.95,1.9,8.93c0.35,1.65,0.71,3.31,0.93,4.99c0.17,1.29,0.28,2.6,0.68,3.83
		c0.66,2.02,2.06,3.66,3.64,5.12c-0.13,10.15,0.34,22.78-0.63,34.57c4.09,1.32,8.15,2.36,12.19,3.14c0.72,3.84,1.2,7.7,1.07,11.62
		c-0.13,3.97-0.88,7.92-0.73,11.89c0.16,4.27,1.34,8.42,2.51,12.53c1.33,4.65,2.65,9.29,3.98,13.94c1.4,4.9,2.8,9.84,3.17,14.92
		c0.25,3.41,0.03,6.83-0.19,10.24c-0.33,5.12-0.66,10.23-1,15.35c-0.05,0.8-0.09,1.67,0.34,2.35c0.3,0.48,0.79,0.8,1.28,1.07
		c2.97,1.64,6.68,1.87,9.83,0.61c0.01,0,0.02-0.01,0.03-0.01c-0.01,0.51-0.02,1.02-0.03,1.53c-0.01,0.55-0.01,1.13,0.29,1.58
		c0.33,0.51,0.95,0.74,1.53,0.89c3.44,0.9,7.27,0.19,10.15-1.9c1.41-1.02,2.66-2.49,2.76-4.23c0.06-1.02-0.27-2.02-0.58-2.99
		c-2.82-9.11-2.98-18.84-2.18-28.35c0.81-9.5,2.55-18.9,3.45-28.4c0.38-3.96,0.6-7.97,0.02-11.9c-0.47-3.15-1.46-6.21-1.85-9.38
		c-0.51-4.13,0-8.29,0.75-12.4c3.17-0.88,6.34-1.99,9.51-3.36c0-10.79,0.15-31.83-0.18-40.25c-0.33-8.42-1.32-16.98-4.82-24.63
		c-0.31-0.69-0.66-1.36-1.02-2.03c1.51-1.12,2.87-2.47,4.01-3.97c-2.06-4.67-3.61-9.57-4.64-14.57c-0.12-0.59-0.23-1.18-0.32-1.77
		c0.48,1.08,1.01,2.21,1.61,3.4c1.28,2.53,1.64,5.41,2.75,8.02c0.16,0.38,0.35,0.8,0.72,0.99c0.3,0.16,0.66,0.13,1,0.09
		c0.06-0.01,0.13-0.02,0.19-0.03c0.5,1.58,1.24,3.1,1.97,4.6c2.34,4.79,4.68,9.59,7.02,14.38c1.31,2.68,2.65,5.64,1.91,8.53
		c-0.36,1.41-1.2,2.68-1.47,4.12c-0.16,0.89-0.1,1.81-0.03,2.71c0.2,2.77,0.4,5.54,0.61,8.31c0.05,0.71,0.4,1.67,1.1,1.53
		c0.38,0.68,0.19,1.54,0.38,2.3c0.19,0.76,1.26,1.39,1.7,0.74c-0.01,0.56-0.02,1.12-0.04,1.68c0,0.22,0,0.47,0.16,0.63
		c0.35,0.36,0.93-0.09,1.2-0.52c2.19-3.37,3.98-7.22,3.8-11.23C113.8,247.8,113.4,246.2,113.25,244.58z M44.82,212.87
		c-0.96-3.63-0.73-7.46-0.48-11.21c0.24-3.76,0.49-7.52,0.73-11.29c0.62,2.98,1.24,5.95,1.55,8.98
		C47.07,203.93,46.73,208.77,44.82,212.87z M41.93,236.49c-0.06-0.06-0.13-0.11-0.18-0.18c-0.85-1-1.17-2.37-1.17-3.69
		c0-1.32,0.27-2.62,0.46-3.92c0.61-4.31,0.25-8.69-0.49-12.99c1.56-0.6,3-1.49,4.2-2.67c-0.49,1.02-1.07,1.99-1.76,2.9
		c-0.24,0.31-0.5,0.66-0.45,1.05c0.03,0.21,0.15,0.4,0.27,0.58c1.02,1.48,2.32,2.65,3.81,3.57c-0.06,0.1-0.11,0.21-0.17,0.31
		C43.96,226.05,42.74,231.25,41.93,236.49z M70.38,348.94c-0.29-7.9,0.72-15.83-0.01-23.7c-0.53-5.67-1.96-11.29-1.65-16.98
		c0.09-1.58,0.31-3.14,0.57-4.7c0.61,3.08,1.58,6.09,2.03,9.19c0.87,6.02-0.22,12.16,0.2,18.23c0.34,5.02,1.72,9.93,2.06,14.96
		c0.29,4.3-0.17,8.6-0.44,12.9c-0.2,3.12-0.3,6.24-0.37,9.37C71.72,361.8,70.61,355.41,70.38,348.94z"/>
</g>
<g id="DESIGNED_BY_FREEPIK">
</g>
</svg>
